<?xml version="1.0" standalone="no"?>
<!DOCTYPE svg PUBLIC "-//W3C//DTD SVG 20010904//EN"
 "http://www.w3.org/TR/2001/REC-SVG-20010904/DTD/svg10.dtd">
<svg version="1.0" xmlns="http://www.w3.org/2000/svg"
 width="300.000000pt" height="388.000000pt" viewBox="0 0 300.000000 388.000000"
 preserveAspectRatio="xMidYMid meet">
<metadata>
Created by potrace 1.10, written by Peter Selinger 2001-2011
</metadata>
<g transform="translate(0.000000,388.000000) scale(0.100000,-0.100000)"
fill="#000000" stroke="none">
<path d="M1165 3390 c54 -20 85 -25 70 -12 -12 10 -87 32 -106 31 -8 0 9 -9
36 -19z"/>
<path d="M1825 3396 c61 -15 91 -30 128 -64 37 -35 34 -49 -5 -22 -45 30 -138
73 -144 67 -3 -3 14 -12 39 -22 24 -9 56 -30 71 -46 15 -16 31 -27 35 -24 4 2
30 -16 57 -40 53 -49 70 -52 33 -7 -13 16 -31 43 -40 59 -31 58 -127 113 -194
112 -23 -1 -19 -3 20 -13z"/>
<path d="M1588 3381 c-1 -5 -71 -11 -159 -13 -105 -2 -156 -7 -156 -14 0 -8
38 -10 126 -8 144 4 279 5 301 1 8 -1 16 3 18 8 1 6 -17 13 -42 17 -24 3 -53
9 -64 12 -11 4 -22 2 -24 -3z"/>
<path d="M1740 3348 c0 -6 3 -9 6 -5 4 3 29 -3 57 -13 62 -24 70 -20 22 9 -39
23 -85 28 -85 9z"/>
<path d="M1076 3336 c6 -15 81 -42 91 -33 3 4 -3 7 -15 7 -11 0 -27 6 -34 13
-20 20 -48 29 -42 13z"/>
<path d="M1060 3275 c6 -7 8 -14 5 -17 -3 -2 9 -3 25 0 40 6 38 19 -5 24 -24
3 -31 1 -25 -7z"/>
<path d="M965 3253 c-27 -8 -77 -18 -110 -23 l-60 -8 65 3 c73 3 136 16 165
33 28 16 2 14 -60 -5z"/>
<path d="M2069 3231 c12 -16 21 -33 21 -38 0 -5 10 -9 22 -10 21 -2 21 -1 -5
23 -15 14 -27 29 -27 33 0 5 -7 12 -16 15 -12 4 -10 -1 5 -23z"/>
<path d="M970 3213 c-8 -3 -18 -10 -21 -15 -3 -4 -32 -18 -65 -29 -78 -27 -89
-40 -21 -24 47 11 147 59 147 71 0 5 -22 4 -40 -3z"/>
<path d="M2130 3164 c0 -12 32 -44 44 -44 4 0 21 -13 39 -30 18 -16 35 -30 39
-30 3 0 16 -16 28 -35 17 -28 24 -32 35 -22 12 10 7 18 -30 51 -25 21 -45 44
-45 52 0 8 -9 14 -20 14 -11 0 -23 7 -26 15 -4 8 -14 15 -23 15 -9 0 -22 5
-29 12 -7 7 -12 8 -12 2z"/>
<path d="M835 3118 c-29 -17 -60 -48 -49 -49 5 0 -7 -7 -26 -14 -19 -7 -27
-14 -17 -14 9 -1 17 -9 17 -18 0 -12 7 -8 21 15 12 17 25 32 29 32 5 0 11 8
14 18 4 10 18 23 34 29 15 6 20 11 12 12 -8 0 -24 -5 -35 -11z"/>
<path d="M1378 3030 c-2 -7 -27 -12 -62 -12 -52 -1 -57 -3 -41 -15 11 -7 21
-9 24 -5 3 5 34 7 69 6 34 -1 65 2 68 7 3 5 -3 9 -13 9 -11 0 -24 5 -30 11 -8
8 -12 7 -15 -1z"/>
<path d="M724 2987 c-12 -7 -19 -17 -17 -23 2 -7 -7 -14 -20 -18 -13 -3 -30
-18 -38 -33 -7 -16 -33 -46 -57 -67 -37 -33 -41 -41 -28 -48 22 -12 35 -2 29
22 -3 12 0 20 6 20 7 0 9 -4 6 -10 -3 -5 1 -10 11 -10 11 0 15 6 11 20 -3 13
0 20 9 20 8 0 14 9 14 20 0 11 3 19 8 18 8 -3 38 25 81 75 26 29 20 34 -15 14z"/>
<path d="M2326 2932 c22 -36 81 -92 95 -92 7 0 1 10 -13 23 -13 12 -33 37 -43
54 -10 17 -27 34 -37 37 -19 4 -19 3 -2 -22z"/>
<path d="M1050 2943 c-32 -10 -60 -27 -60 -35 0 -5 13 -2 30 7 16 8 36 15 45
15 8 0 15 5 15 10 0 11 -6 11 -30 3z"/>
<path d="M948 2890 c-9 -8 -23 -20 -30 -26 -7 -6 -24 -24 -37 -40 -13 -16 -33
-39 -44 -52 -17 -18 -18 -25 -8 -35 10 -9 11 -8 6 6 -5 12 -2 17 9 17 9 0 16
5 16 11 0 6 25 35 56 65 30 30 54 58 52 62 -2 4 -11 1 -20 -8z"/>
<path d="M2431 2793 c19 -24 52 -52 62 -53 4 0 -7 16 -24 35 -33 35 -63 50
-38 18z"/>
<path d="M580 2750 c0 -5 -9 -18 -21 -29 -12 -11 -18 -24 -15 -30 8 -12 -29
-95 -50 -112 -8 -6 -14 -17 -14 -25 0 -8 10 -3 25 12 14 14 25 31 25 39 0 8 4
16 9 19 13 8 52 87 57 113 3 13 0 23 -6 23 -5 0 -10 -4 -10 -10z"/>
<path d="M2478 2724 c-4 -6 1 -19 12 -29 11 -10 20 -24 20 -30 0 -7 9 -15 20
-18 24 -6 27 8 4 17 -8 3 -12 11 -9 17 4 6 -2 13 -13 16 -12 3 -22 12 -24 22
-2 10 -6 12 -10 5z"/>
<path d="M2517 2624 c-5 -6 11 -27 66 -88 27 -30 27 -30 -4 22 -34 56 -52 75
-62 66z"/>
<path d="M2530 2541 c0 -6 4 -11 9 -11 5 0 7 -13 6 -30 -1 -16 1 -27 6 -24 14
9 10 50 -6 64 -10 9 -15 9 -15 1z"/>
<path d="M516 2460 c-12 -41 -25 -77 -31 -92 -5 -13 -2 -15 13 -12 10 3 19 11
19 17 1 7 6 26 11 43 5 17 6 37 1 45 -6 11 -9 11 -13 -1z"/>
<path d="M2545 2385 c8 -87 9 -90 25 -80 11 7 6 81 -7 115 -4 8 -7 18 -7 22
-1 3 -5 10 -10 15 -5 4 -5 -27 -1 -72z"/>
<path d="M749 2403 c-1 -27 -3 -104 -5 -173 -1 -69 -6 -159 -10 -200 -4 -41
-8 -92 -8 -112 -1 -20 -6 -42 -13 -49 -8 -8 -9 -18 -2 -31 7 -14 7 -18 -3 -16
-15 3 -13 -61 2 -76 6 -6 10 -20 10 -32 0 -12 11 -29 24 -37 l24 -16 -10 42
c-9 39 -4 440 8 660 2 55 0 87 -6 87 -5 0 -11 -21 -11 -47z"/>
<path d="M530 2304 c-13 -33 -13 -41 3 -47 9 -3 12 -23 11 -61 -1 -31 2 -56 7
-56 5 0 9 -10 9 -22 0 -18 2 -20 9 -8 6 8 7 18 4 23 -4 7 -12 70 -16 139 -1 9
-5 14 -10 11 -4 -2 -5 7 -1 21 8 34 -4 34 -16 0z"/>
<path d="M1850 2304 c-14 -7 -32 -13 -41 -14 -9 0 -29 -7 -45 -14 -15 -8 -31
-13 -36 -10 -4 3 -8 -5 -8 -17 0 -17 3 -19 14 -10 20 17 76 32 76 20 0 -13 51
0 73 19 9 8 17 10 17 5 0 -18 37 -22 76 -8 37 12 65 12 98 -1 14 -5 17 -4 12
4 -15 25 16 10 50 -23 39 -39 49 -44 39 -17 -3 9 8 1 25 -18 17 -19 28 -40 26
-47 -3 -7 1 -13 9 -13 17 0 10 22 -19 64 -26 35 -129 103 -134 88 -2 -8 -11
-8 -28 -1 -34 12 -39 12 -24 -6 15 -18 7 -19 -23 -4 -32 18 -128 19 -157 3z"/>
<path d="M1073 2284 c23 -7 22 -20 -3 -27 -11 -3 -20 -1 -20 4 0 4 -7 6 -15 3
-8 -4 -15 -1 -15 6 0 10 -3 10 -15 0 -8 -7 -12 -16 -9 -21 3 -5 -1 -9 -10 -9
-18 0 -96 -76 -96 -93 1 -7 6 -5 14 6 7 9 17 17 21 17 4 0 18 11 30 24 36 39
84 47 172 29 56 -11 77 -12 83 -4 5 9 15 9 36 1 l29 -10 -24 20 c-13 11 -32
20 -44 20 -11 0 -18 3 -14 6 11 11 63 -6 87 -29 26 -24 78 -33 59 -11 -8 9 -5
11 11 7 11 -3 23 -9 26 -14 3 -5 10 -9 15 -9 6 0 7 5 4 10 -4 7 3 9 22 5 l28
-6 -30 14 c-32 16 -197 57 -228 57 -10 0 -15 -4 -12 -10 4 -6 -2 -7 -17 -1
-13 4 -41 11 -63 14 -22 3 -32 3 -22 1z m72 -34 c4 -6 -10 -9 -35 -8 -25 1
-36 4 -28 10 18 11 56 10 63 -2z"/>
<path d="M2535 2197 c-9 -27 -9 -20 -1 -86 4 -29 9 -58 13 -64 4 -6 7 -29 9
-51 5 -92 14 -140 29 -155 14 -15 15 -8 10 74 -4 50 -15 113 -25 141 -11 31
-18 72 -16 103 2 56 -7 75 -19 38z"/>
<path d="M2374 1970 c4 -175 2 -215 -13 -272 -9 -38 -16 -68 -15 -68 1 0 17
25 34 56 30 52 32 59 23 107 -6 29 -9 76 -8 105 1 28 -1 52 -4 52 -3 0 -6 45
-6 101 0 55 -4 106 -8 112 -5 7 -6 -80 -3 -193z"/>
<path d="M1907 2149 c-58 -9 -55 -18 4 -12 33 3 76 -1 112 -10 61 -16 75 -14
30 5 -43 17 -104 24 -146 17z"/>
<path d="M559 2070 c-3 -107 1 -218 7 -204 9 22 54 -8 54 -36 0 -39 16 -57 22
-26 4 18 -2 34 -18 51 -25 27 -47 93 -42 128 1 12 -1 27 -5 34 -4 6 -3 14 1
17 11 7 3 56 -9 56 -5 0 -9 -9 -10 -20z"/>
<path d="M1051 2065 c-30 -14 -51 -28 -48 -32 4 -3 18 2 33 11 14 10 42 24 62
31 21 8 30 14 22 14 -8 1 -39 -10 -69 -24z"/>
<path d="M1860 2044 c-53 -19 -96 -48 -110 -74 -9 -17 -5 -19 57 -18 l68 1
-55 12 c-30 7 -47 13 -37 14 9 0 17 5 17 9 0 5 15 15 32 24 33 15 33 15 43
-16 8 -25 18 -33 49 -41 35 -8 40 -7 61 17 13 15 24 31 26 37 3 7 21 3 47 -11
l44 -21 -34 -15 c-18 -8 -41 -14 -50 -14 -26 1 -29 -12 -7 -26 15 -10 19 -10
19 3 0 14 77 42 87 31 3 -3 12 2 20 10 9 8 14 16 12 18 -2 1 -35 17 -74 36
-83 40 -150 47 -215 24z"/>
<path d="M1130 2043 c-14 -3 -31 -9 -37 -15 -7 -6 -38 -21 -70 -34 -32 -13
-50 -24 -40 -24 9 0 17 -4 17 -10 0 -5 11 -10 25 -10 14 0 41 -6 60 -14 21 -9
37 -11 40 -5 4 5 0 9 -7 9 -8 0 -25 5 -39 12 l-26 12 21 23 c11 13 25 23 32
23 7 0 15 6 18 13 3 6 4 0 1 -14 -5 -25 8 -43 44 -64 11 -6 13 -4 8 8 -8 21
-3 21 16 2 13 -13 18 -12 41 6 14 11 26 29 26 40 0 20 1 20 30 2 17 -9 30 -21
30 -25 0 -4 9 -8 20 -8 29 0 24 12 -15 37 -54 35 -126 48 -195 36z"/>
<path d="M1312 1959 c-76 -10 -75 -18 2 -17 36 1 66 5 66 9 0 14 -14 15 -68 8z"/>
<path d="M2513 1896 c-20 -23 -20 -24 -3 -29 13 -3 19 2 23 22 7 34 4 35 -20
7z"/>
<path d="M2430 1878 c0 -7 -3 -30 -6 -50 -4 -21 -2 -38 3 -38 5 0 9 8 9 18 0
9 4 32 8 50 5 21 4 32 -3 32 -6 0 -11 -6 -11 -12z"/>
<path d="M2513 1737 c-1 -83 1 -104 8 -82 15 48 20 195 6 195 -8 0 -13 -34
-14 -113z"/>
<path d="M1730 1719 c0 -3 11 -28 25 -55 14 -27 28 -64 31 -81 3 -18 10 -33
14 -33 13 0 0 60 -20 100 -20 37 -49 79 -50 69z"/>
<path d="M2391 1596 c-20 -11 -21 -14 -6 -19 28 -11 44 -8 54 11 12 22 -13 26
-48 8z"/>
<path d="M655 1560 c16 -26 48 -60 57 -60 17 0 7 16 -29 44 -20 16 -33 23 -28
16z"/>
<path d="M1643 1542 l-33 -17 55 1 c59 1 78 9 55 24 -21 14 -40 12 -77 -8z"/>
<path d="M1393 1530 c-6 -24 -26 -26 -48 -4 -22 22 -28 13 -9 -14 18 -25 77
-32 68 -8 -14 36 65 27 99 -12 10 -11 29 -23 42 -26 31 -8 75 9 75 29 0 12 -4
14 -19 5 -32 -16 -55 -12 -102 20 -52 35 -98 40 -106 10z"/>
<path d="M1760 1505 c-14 -8 -33 -14 -42 -15 -9 0 -19 -4 -22 -9 -9 -15 75 6
92 23 20 20 6 20 -28 1z"/>
<path d="M2387 1431 c-19 -22 -38 -37 -41 -33 -3 3 -6 0 -6 -7 0 -7 -4 -10 -9
-6 -5 3 -12 1 -16 -5 -3 -5 1 -10 10 -10 18 0 127 99 109 100 -7 0 -28 -18
-47 -39z"/>
<path d="M1300 1219 l-35 -20 40 6 c22 3 73 8 113 11 l72 7 1 -29 1 -29 9 26
c10 28 8 28 189 31 14 1 47 -4 75 -10 27 -6 51 -9 52 -8 1 1 -2 8 -7 16 -8 12
-49 15 -242 17 -215 2 -236 0 -268 -18z"/>
<path d="M1512 1085 c7 -8 87 -9 95 -2 3 4 -18 7 -47 7 -29 0 -51 -2 -48 -5z"/>
<path d="M860 995 c-7 -14 -18 -25 -24 -25 -6 -1 -19 -17 -28 -37 -14 -29 -15
-40 -5 -52 10 -12 9 -14 -4 -9 -13 5 -18 -5 -27 -52 -12 -65 -8 -92 20 -132
10 -14 18 -29 18 -33 0 -8 33 -51 92 -119 21 -24 34 -46 30 -50 -4 -4 -2 -6 4
-4 7 2 37 -19 69 -46 69 -59 84 -56 18 5 -69 63 -123 130 -123 151 0 10 -5 18
-12 18 -21 0 -58 52 -58 81 0 44 10 59 51 76 22 8 39 19 39 24 0 5 -2 9 -5 9
-14 0 -87 -53 -92 -66 -4 -12 -8 -11 -20 6 -13 18 -13 29 -2 73 7 29 12 62 11
73 -1 12 5 27 13 34 8 7 15 16 15 21 0 9 36 49 45 49 2 0 2 -6 -1 -14 -3 -8
-1 -17 5 -21 26 -15 3 -125 -25 -125 -7 0 -15 -4 -18 -8 -3 -5 12 -6 32 -3
l37 6 7 68 c7 61 6 71 -14 97 -26 36 -31 37 -48 5z"/>
<path d="M2090 935 c-30 -19 -89 -48 -130 -66 -86 -38 -85 -37 -77 -45 8 -9
205 89 242 120 40 34 31 31 -35 -9z"/>
<path d="M970 939 c104 -83 210 -141 239 -131 8 3 11 0 7 -6 -3 -6 14 -17 43
-27 27 -9 51 -19 53 -23 2 -4 32 -15 68 -26 86 -24 270 -22 278 4 2 5 10 10
18 10 8 0 22 4 32 10 9 5 46 19 82 31 36 12 69 25 75 30 13 13 -8 11 -42 -3
-15 -6 -33 -12 -39 -13 -26 -6 -61 -18 -99 -35 -50 -23 -172 -34 -210 -20 -15
6 -64 19 -109 30 -79 18 -176 50 -186 60 -3 3 -18 11 -35 18 -37 16 -159 94
-163 104 -2 5 -11 8 -20 8 -13 -1 -11 -5 8 -21z"/>
<path d="M2160 823 c0 -4 27 -35 60 -68 51 -52 62 -69 76 -124 18 -71 15 -118
-18 -266 -11 -49 -21 -101 -23 -115 -2 -14 -13 -74 -24 -133 -25 -128 -24
-117 -7 -117 10 0 18 23 26 73 17 98 17 98 29 130 6 16 9 33 6 37 -3 5 4 56
15 114 12 58 22 146 23 195 1 49 5 92 8 96 8 7 181 -81 191 -98 4 -7 8 -9 8
-5 0 4 15 -1 33 -12 17 -11 86 -47 152 -80 66 -33 127 -65 135 -70 80 -51 163
-89 135 -61 -6 5 -86 49 -180 97 -93 48 -217 114 -275 147 -58 33 -118 66
-135 74 -67 32 -81 42 -96 72 -23 43 -38 60 -83 93 -39 28 -56 34 -56 21z"/>
<path d="M2118 800 c-3 -14 -11 -52 -17 -85 -11 -61 -100 -224 -162 -296 -16
-19 -28 -41 -26 -49 1 -9 -4 -14 -13 -12 -8 2 -12 0 -8 -3 4 -4 1 -20 -7 -35
-8 -15 -12 -29 -10 -32 5 -4 -22 -34 -91 -100 -95 -92 -124 -132 -123 -168 1
-24 1 -24 11 5 14 40 66 105 84 105 8 0 14 6 14 13 0 6 24 35 53 62 55 52 98
106 110 138 4 11 12 15 19 11 8 -5 9 -2 5 10 -7 17 37 106 52 106 3 0 22 30
41 68 19 37 38 69 42 72 12 9 39 148 36 182 -4 31 -4 31 -10 8z"/>
<path d="M656 776 c-18 -18 -43 -37 -56 -41 -13 -4 -37 -16 -54 -26 -17 -11
-38 -19 -46 -19 -8 0 -103 -36 -210 -79 -107 -44 -216 -87 -243 -97 -26 -9
-45 -19 -43 -21 5 -6 70 13 103 29 12 6 29 8 37 5 9 -4 16 -3 16 2 0 5 15 14
32 20 18 7 51 21 73 31 22 10 51 22 65 25 14 4 35 13 47 21 11 7 33 15 48 18
15 3 32 9 38 14 7 5 28 13 47 17 19 4 45 13 57 21 12 7 38 23 57 34 43 24 44
22 21 -87 -10 -49 -14 -114 -12 -195 3 -119 5 -127 46 -228 23 -58 44 -113 46
-124 3 -10 9 -24 15 -30 5 -7 7 -15 4 -19 -9 -8 6 -47 18 -47 18 0 1 86 -33
163 -63 143 -79 204 -79 301 0 91 16 195 43 294 18 62 8 67 -37 18z"/>
<path d="M1046 325 c-16 -18 -26 -44 -31 -83 -8 -64 -15 -80 -59 -137 -39 -49
-44 -55 -80 -83 -27 -21 -28 -22 -6 -22 32 0 75 34 111 90 28 44 34 48 56 39
37 -14 39 -11 13 16 -13 14 -19 25 -13 25 6 0 13 27 17 60 7 63 23 77 48 42
13 -19 57 -47 63 -40 6 5 -23 39 -32 38 -14 -3 -63 34 -63 48 0 6 5 12 10 12
6 0 10 5 10 10 0 18 -20 11 -44 -15z"/>
<path d="M1205 213 c8 -18 20 -33 26 -33 6 0 9 -9 6 -20 -3 -11 -1 -20 3 -20
16 0 22 21 11 34 -6 7 -8 16 -4 19 3 4 1 7 -6 7 -7 0 -22 10 -32 23 l-20 22
16 -32z"/>
<path d="M1838 188 c-31 -47 -57 -106 -50 -112 3 -4 -11 -23 -33 -41 -40 -34
-40 -34 -13 -35 33 0 73 46 88 100 6 24 17 40 25 40 8 0 15 -4 15 -10 0 -5 7
-10 15 -10 12 0 15 9 12 33 -7 61 -33 76 -59 35z"/>
<path d="M1194 165 c5 -14 -17 -45 -33 -45 -5 0 -14 7 -21 15 -14 17 -30 20
-30 4 0 -5 4 -7 10 -4 5 3 15 -3 21 -14 7 -10 18 -17 24 -15 6 3 17 -7 23 -21
9 -19 9 -25 0 -25 -7 0 -3 -6 8 -14 10 -8 20 -10 22 -5 2 5 24 -2 48 -16 34
-19 58 -25 97 -23 l52 2 -49 3 c-35 3 -54 10 -64 24 -7 10 -21 19 -30 19 -12
0 -13 3 -4 12 15 15 16 65 0 74 -8 5 -9 -3 -5 -30 8 -47 -14 -58 -49 -26 -27
26 -30 43 -11 62 15 14 12 38 -5 38 -6 0 -8 -7 -4 -15z"/>
<path d="M1891 87 c-8 -10 -7 -19 4 -33 8 -10 15 -27 15 -36 0 -10 7 -18 15
-18 18 0 18 -2 1 48 -8 22 -12 43 -9 46 4 3 2 6 -4 6 -6 0 -16 -6 -22 -13z"/>
<path d="M1085 77 c32 -21 77 -38 70 -27 -6 9 -70 40 -83 40 -4 0 2 -6 13 -13z"/>
</g>
</svg>
